# xmcd
#
# Track frame offsets: 
#        150
#        20375
#        44225
#        68900
#        97375
#        106925
#        125955
#        145350
#        167270
#
# Disc length: 2687 seconds
#
# Revision: 10
# Processed by: cddbd v1.5.2PL0 Copyright (c) Steve Scherf et al.
# Submitted via: ExactAudioCopy v1.0b4
#
DISCID=870a7d09
DTITLE=YES - 90125
DYEAR=1983
DGENRE=Progressive Rock
TTITLE0=Owner Of A Lonely Heart
TTITLE1=Hold On
TTITLE2=It Can Happen
TTITLE3=Changes
TTITLE4=Cinema
TTITLE5=Leave It
TTITLE6=Our Song
TTITLE7=City Of Love
TTITLE8=Hearts
EXTD=YEAR: 1983
EXTT0=
EXTT1=
EXTT2=
EXTT3=
EXTT4=
EXTT5=
EXTT6=
EXTT7=
EXTT8=
PLAYORDER=
